<?xml version="1.0" standalone="no"?>
<!DOCTYPE svg PUBLIC "-//W3C//DTD SVG 20010904//EN"
 "http://www.w3.org/TR/2001/REC-SVG-20010904/DTD/svg10.dtd">
<svg version="1.0" xmlns="http://www.w3.org/2000/svg"
 width="1200.000000pt" height="1200.000000pt" viewBox="0 0 1200.000000 1200.000000"
 preserveAspectRatio="xMidYMid meet">
<metadata>
Created by potrace 1.14, written by Peter Selinger 2001-2017
</metadata>
<g transform="translate(0.000000,1200.000000) scale(0.100000,-0.100000)"
fill="#000000" stroke="none">
<path d="M2525 11230 c-88 -38 -180 -78 -205 -88 -97 -42 -430 -183 -525 -222
-55 -23 -113 -48 -130 -55 -16 -7 -149 -63 -295 -125 -390 -165 -525 -222
-529 -226 -5 -4 26 -18 209 -94 69 -28 149 -63 178 -76 29 -13 55 -24 58 -24
3 0 31 -12 62 -26 31 -14 109 -48 172 -74 63 -26 355 -149 648 -273 l532 -226
233 98 c127 54 495 210 817 345 322 136 609 258 638 272 29 13 56 24 60 24 4
1 25 9 47 20 22 11 46 19 53 20 39 1 -14 28 -245 125 -142 59 -276 116 -298
126 -22 10 -143 61 -270 115 -126 53 -249 105 -272 115 -24 11 -55 24 -70 30
-15 5 -112 46 -217 91 -105 44 -253 107 -329 139 -76 33 -144 59 -150 58 -7 0
-84 -31 -172 -69z"/>
<path d="M692 9115 l3 -1256 195 -83 c107 -45 310 -131 450 -190 140 -60 284
-121 320 -136 36 -16 153 -65 260 -110 107 -45 209 -87 225 -95 17 -7 107 -46
200 -85 94 -39 189 -80 212 -91 24 -10 45 -19 48 -19 3 0 5 566 5 1258 l0
1259 -112 46 c-105 43 -588 246 -633 266 -11 5 -36 16 -55 24 -19 8 -64 27
-100 42 -36 15 -84 36 -107 46 -24 11 -82 35 -130 55 -97 40 -324 136 -591
250 -95 41 -177 74 -183 74 -6 0 -8 -473 -7 -1255z"/>
<path d="M4370 10234 c-173 -74 -412 -176 -530 -225 -118 -50 -228 -97 -245
-104 -16 -8 -59 -26 -95 -41 -57 -23 -91 -38 -175 -75 -11 -5 -51 -21 -90 -37
-38 -16 -154 -64 -257 -108 l-188 -79 0 -1259 c0 -1002 3 -1257 13 -1253 34
14 737 312 772 327 22 10 198 84 390 164 193 81 359 151 370 156 11 6 99 43
195 84 l175 74 3 1256 c2 1002 0 1256 -10 1255 -7 -1 -155 -62 -328 -135z"/>
<path d="M5700 9707 c-38 -10 -70 -59 -64 -96 3 -14 16 -37 30 -51 l24 -25
1603 -2 c881 -1 1605 -2 1610 -2 4 -1 7 -561 7 -1246 l0 -1245 90 1 90 1 0
1298 c0 931 -3 1306 -11 1323 -6 14 -22 30 -34 37 -18 10 -383 13 -1669 14
-905 0 -1660 -3 -1676 -7z"/>
<path d="M8177 6862 c-9 -2 -17 -6 -17 -8 0 -3 45 -69 100 -147 55 -78 124
-175 153 -216 29 -40 58 -79 65 -87 6 -7 12 -15 12 -18 0 -3 57 -85 127 -183
138 -193 216 -304 302 -428 76 -110 80 -114 98 -90 8 11 77 108 152 215 76
107 204 290 286 405 317 448 385 545 385 550 0 5 -1635 12 -1663 7z"/>
<path d="M2584 5982 c-124 -177 -393 -558 -423 -599 -11 -16 -62 -89 -115
-163 -52 -74 -113 -160 -135 -190 -22 -31 -41 -62 -43 -70 -3 -12 122 -14 830
-14 459 -1 836 2 838 5 2 4 -23 44 -55 90 -33 46 -69 98 -81 114 -11 17 -40
57 -64 90 -23 33 -74 105 -113 160 -39 55 -121 172 -184 261 -63 88 -163 231
-224 317 -60 86 -112 157 -115 157 -3 0 -55 -71 -116 -158z"/>
<path d="M8785 4633 c-66 -91 -126 -172 -133 -181 -23 -31 -188 -256 -537
-732 -191 -261 -362 -494 -379 -517 -17 -23 -39 -52 -48 -65 -9 -12 -43 -59
-76 -103 -32 -44 -185 -251 -338 -461 -153 -210 -287 -392 -297 -405 -169
-230 -237 -325 -237 -330 0 -4 73 -47 163 -95 207 -112 252 -136 307 -166 41
-23 301 -165 460 -250 36 -20 91 -50 123 -67 31 -17 83 -45 115 -62 31 -17
188 -102 347 -189 160 -87 337 -183 395 -214 58 -31 112 -60 120 -65 48 -29
133 -71 136 -68 2 2 3 933 2 2069 l-3 2065 -120 -164z"/>
<path d="M9090 2732 c0 -1140 3 -2072 6 -2072 3 0 65 32 137 71 215 117 229
124 312 169 82 44 132 72 208 114 37 21 106 58 357 194 36 19 89 48 118 63
112 62 853 464 957 521 39 20 70 43 69 51 -1 11 -234 332 -639 882 -28 39 -83
113 -121 165 -38 52 -74 102 -81 110 -10 13 -104 141 -160 219 -10 14 -32 43
-48 65 -17 23 -104 142 -195 266 -90 124 -173 237 -184 251 -12 15 -29 37 -38
50 -9 13 -43 60 -76 104 -51 69 -275 376 -409 560 -24 33 -50 67 -56 75 -7 8
-28 38 -47 65 -19 28 -37 52 -40 55 -3 3 -20 25 -38 49 l-32 45 0 -2072z"/>
<path d="M2610 3267 l0 -1499 29 -29 29 -29 1537 0 c1690 0 1581 -4 1604 61
14 40 -10 96 -46 110 -14 5 -629 9 -1499 9 l-1474 0 0 1438 0 1438 -90 0 -90
0 0 -1499z"/>
</g>
</svg>
